# xmcd
#
# Track frame offsets:
#	150
#	13330
#	26265
#	38085
#	48465
#	60200
#	73880
#	85075
#	98990
#	110580
#	122790
#	133790
#	145785
#	159820
#	172105
#	185035
#	195960
#	206320
#	218900
#	227880
#
# Disc length: 3204 seconds
#
# Revision: 1
# Processed by: cddbd v1.5.2PL0 Copyright (c) Steve Scherf et al.
# Submitted via: EasyCDDAExtractor 10.5.1.1
#
DISCID=170c8214
DTITLE=Various Artist - Classic Country
DYEAR=2007
DGENRE=Country
TTITLE0=Hank Williams - Jambalaya
TTITLE1=Hank Snow - I'm Movin' On
TTITLE2=Patsy Cline - Walking After Midnight
TTITLE3=Jim Reeves - Just Call Me Lonesome
TTITLE4=Tennessee Ernie Ford - The Shot-Gun Boogie
TTITLE5=Webb Pierce - Wondering
TTITLE6=Marty Robbins - Singin' The Blues
TTITLE7=Billy Walker - Cross The Brazos At Waco
TTITLE8=Sammi Smith - Help Me Make It Through The Night
TTITLE9=Faron Young - Goin' Steady
TTITLE10=Tex Ritter - High Noon
TTITLE11=Skeeter Davis - The End Of The World
TTITLE12=Letty Frizzel - Always Late
TTITLE13=Waylon Jennings - Don't Think Twice, It's All Right
TTITLE14=Merle Travis - Sixteen Tons
TTITLE15=Charlie Rich - There Won't Be Anymore
TTITLE16=Johnny Darrell - Ruby, Don't Take Your Love To Town
TTITLE17=Hank Williams - Your Cheatin' Heart
TTITLE18=Bob Luman - Let's Think About Living
TTITLE19=Johnny Cash - I Walk The Line
EXTD=
EXTT0=
EXTT1=
EXTT2=
EXTT3=
EXTT4=
EXTT5=
EXTT6=
EXTT7=
EXTT8=
EXTT9=
EXTT10=
EXTT11=
EXTT12=
EXTT13=
EXTT14=
EXTT15=
EXTT16=
EXTT17=
EXTT18=
EXTT19=
PLAYORDER=
